<?xml version="1.0" standalone="no"?>
<!DOCTYPE svg PUBLIC "-//W3C//DTD SVG 20010904//EN"
 "http://www.w3.org/TR/2001/REC-SVG-20010904/DTD/svg10.dtd">
<svg version="1.0" xmlns="http://www.w3.org/2000/svg"
 width="338.000000pt" height="338.000000pt" viewBox="0 0 338.000000 338.000000"
 preserveAspectRatio="xMidYMid meet">

<g transform="translate(0.000000,338.000000) scale(0.100000,-0.100000)"
fill="#000000" stroke="none">
<path d="M855 3159 c-89 -33 -206 -166 -228 -260 -6 -25 -10 -26 -52 -22 -73
9 -75 -5 -30 -259 20 -117 42 -243 49 -279 6 -36 15 -67 20 -67 5 -1 8 36 7
82 -4 174 33 333 90 381 37 30 53 31 172 4 117 -26 231 -23 296 9 25 12 46 22
47 22 9 0 71 -117 90 -170 28 -81 29 -67 4 93 l-20 129 36 44 36 44 -27 10
c-14 5 -31 10 -36 10 -6 0 -50 40 -99 88 -106 105 -174 143 -265 148 -33 2
-73 -1 -90 -7z"/>
<path d="M1848 2758 c-18 -32 -17 -360 2 -382 15 -19 46 -21 56 -5 3 6 6 47 5
90 l-2 79 41 0 40 0 0 -74 c0 -81 16 -110 48 -89 14 8 20 40 29 154 16 184 14
233 -11 237 -28 6 -38 -11 -50 -85 -6 -37 -15 -67 -19 -65 -4 1 -23 2 -42 2
l-34 0 -3 78 c-3 70 -5 77 -25 80 -14 2 -26 -5 -35 -20z"/>
<path d="M2161 2643 c-22 -23 -33 -50 -51 -127 l-23 -98 21 -21 c40 -40 164
-21 130 20 -6 7 -23 13 -38 13 -35 0 -39 6 -31 38 6 22 14 28 47 32 51 6 56
40 8 55 -27 9 -30 13 -21 32 8 18 17 22 45 20 27 -1 37 2 40 15 4 19 -17 32
-65 43 -28 6 -37 2 -62 -22z"/>
<path d="M2337 2638 c-27 -21 -49 -88 -54 -169 -5 -70 -4 -78 17 -99 19 -19
29 -21 66 -16 67 9 116 32 112 53 -3 18 -36 22 -98 12 -25 -4 -25 -3 -21 55 1
33 9 80 17 105 9 32 10 49 2 58 -13 16 -20 16 -41 1z"/>
<path d="M2548 2633 c-47 -53 -65 -220 -29 -264 18 -23 20 -23 82 -10 78 16
101 27 97 49 -4 19 -50 22 -102 7 l-29 -8 6 69 c3 38 12 88 21 110 10 31 11
45 3 53 -16 16 -32 14 -49 -6z"/>
<path d="M2774 2631 c-58 -36 -76 -69 -72 -133 5 -66 29 -100 85 -119 120 -39
238 102 173 208 -37 61 -124 82 -186 44z m116 -61 c61 -61 -26 -173 -93 -119
-36 28 -37 80 -2 114 29 30 68 32 95 5z"/>
<path d="M1060 2607 c0 -33 34 -57 80 -57 20 0 62 -5 94 -11 32 -6 60 -8 64
-5 9 10 -31 47 -73 68 -22 12 -68 23 -102 26 -62 5 -63 4 -63 -21z"/>
<path d="M834 2581 c-55 -25 -120 -84 -133 -121 -5 -17 -8 -30 -6 -30 2 0 47
21 100 47 98 47 121 69 110 103 -8 25 -19 25 -71 1z"/>
<path d="M1136 2451 c-3 -4 6 -6 19 -3 14 2 25 6 25 8 0 8 -39 4 -44 -5z"/>
<path d="M1191 2456 c2 -2 15 -9 29 -15 24 -11 24 -11 6 3 -16 13 -49 24 -35
12z"/>
<path d="M814 2394 c-19 -15 -19 -15 1 -6 11 5 27 12 35 15 13 5 13 6 -1 6 -8
1 -24 -6 -35 -15z"/>
<path d="M1151 2394 c-24 -17 -29 -70 -8 -98 20 -27 68 -18 87 17 13 24 13 30
0 53 -20 36 -52 47 -79 28z m9 -24 c0 -5 -5 -10 -11 -10 -5 0 -7 5 -4 10 3 6
8 10 11 10 2 0 4 -4 4 -10z"/>
<path d="M816 2328 c-22 -31 -20 -64 4 -88 25 -25 52 -26 73 -2 23 25 21 68
-3 92 -26 26 -55 25 -74 -2z m24 -18 c0 -5 -4 -10 -10 -10 -5 0 -10 5 -10 10
0 6 5 10 10 10 6 0 10 -4 10 -10z"/>
<path d="M1172 2120 c-7 -12 -29 -28 -48 -36 -43 -18 -121 -21 -137 -5 -13 13
-37 15 -37 2 0 -5 15 -26 34 -45 28 -30 40 -36 75 -36 77 0 137 54 129 116 -3
25 -3 25 -16 4z"/>
<path d="M808 978 c-3 -40 -5 -126 -4 -191 1 -141 5 -147 100 -147 108 0 110
3 136 183 7 49 16 85 20 80 4 -4 16 -53 25 -108 25 -142 22 -138 112 -133 84
6 126 28 131 71 2 15 -6 71 -17 126 -12 55 -21 110 -21 123 0 23 0 23 -153 24
-136 2 -258 17 -308 38 -14 6 -17 -4 -21 -66z"/>
<path d="M913 293 c9 -2 23 -2 30 0 6 3 -1 5 -18 5 -16 0 -22 -2 -12 -5z"/>
<path d="M1400 291 c0 -4 11 -6 25 -3 14 2 25 6 25 8 0 2 -11 4 -25 4 -14 0
-25 -4 -25 -9z"/>
<path d="M965 272 c1 -9 -5 -20 -14 -24 -14 -7 -13 -7 2 -5 10 1 17 6 17 11
-1 5 4 12 10 16 8 5 7 9 -3 13 -10 4 -14 0 -12 -11z"/>
<path d="M1291 253 l-1 -43 125 0 c104 0 125 2 125 15 0 12 -20 15 -119 15
l-120 0 -4 28 c-3 19 -4 14 -6 -15z"/>
<path d="M1349 281 c7 -5 10 -14 7 -20 -5 -8 20 -11 84 -11 50 0 89 4 86 8 -3
5 -21 7 -41 6 -23 -2 -33 1 -29 7 3 6 15 9 25 6 11 -3 17 -1 13 4 -8 14 -25
11 -47 -8 -11 -10 -17 -12 -13 -5 8 13 -6 17 -18 5 -10 -11 -48 -14 -42 -4 3
5 -1 12 -10 15 -23 9 -31 7 -15 -3z"/>
<path d="M852 267 c-6 -7 -12 -21 -14 -32 -3 -18 3 -20 80 -23 69 -2 82 0 82
13 0 12 -8 14 -40 9 -46 -7 -110 2 -110 17 0 6 4 8 8 5 4 -2 14 -1 21 3 10 7
9 9 -2 14 -9 3 -20 0 -25 -6z"/>
<path d="M905 260 c-3 -5 1 -10 9 -10 9 0 16 5 16 10 0 6 -4 10 -9 10 -6 0
-13 -4 -16 -10z"/>
</g>
</svg>
