<?xml version="1.0" standalone="no"?>
<!DOCTYPE svg PUBLIC "-//W3C//DTD SVG 20010904//EN"
 "http://www.w3.org/TR/2001/REC-SVG-20010904/DTD/svg10.dtd">
<svg version="1.0" xmlns="http://www.w3.org/2000/svg"
 width="539.000000pt" height="744.000000pt" viewBox="0 0 539.000000 744.000000"
 preserveAspectRatio="xMidYMid meet">

<g transform="translate(0.000000,744.000000) scale(0.100000,-0.100000)"
fill="#000000" stroke="none">
<path d="M3580 7334 c-14 -2 -59 -9 -100 -15 -163 -24 -379 -112 -538 -221
-97 -66 -308 -276 -391 -388 -34 -47 -84 -122 -109 -167 -26 -45 -50 -83 -53
-83 -4 0 -10 16 -13 35 -10 51 -22 43 -35 -22 -29 -152 -23 -257 21 -350 l21
-44 -38 -39 -37 -38 30 -6 c16 -4 40 -18 52 -31 22 -24 23 -26 11 -133 -9 -82
-10 -129 -1 -193 18 -135 61 -283 117 -409 16 -36 33 -81 36 -100 7 -34 6 -33
-65 42 -40 42 -86 84 -103 94 l-30 16 24 -19 c22 -18 23 -23 12 -53 -39 -114
21 -230 121 -230 62 0 77 -10 89 -53 6 -23 18 -51 26 -62 15 -20 15 -20 8 0
-92 244 -112 574 -43 709 l20 40 -28 110 c-25 97 -28 129 -29 261 0 134 3 156
24 208 32 81 113 166 193 203 58 27 72 29 183 29 105 0 131 -4 208 -29 49 -16
126 -48 171 -70 l83 -42 39 33 c22 18 65 46 96 63 170 91 313 98 467 24 213
-104 321 -346 268 -601 -11 -52 -11 -68 0 -95 29 -69 63 -186 77 -265 12 -75
12 -92 -6 -189 -10 -59 -16 -109 -13 -112 3 -3 5 4 5 16 0 26 36 52 72 52 33
0 44 -15 26 -37 -12 -14 -11 -15 8 -5 42 22 93 91 109 146 19 64 13 109 -22
180 -19 39 -21 51 -11 57 7 5 9 9 4 9 -13 0 -76 -43 -76 -52 0 -5 -4 -8 -10
-8 -6 0 -6 9 0 26 11 29 29 100 37 149 17 107 -2 357 -33 439 -6 16 -5 17 15
7 21 -12 95 -99 104 -123 10 -30 20 7 25 94 9 184 -41 340 -144 448 l-57 60
64 -1 c66 0 165 -23 232 -53 l39 -17 -27 48 c-39 73 -153 201 -238 267 -243
188 -454 251 -824 244 l-171 -3 14 27 c25 48 137 159 191 190 29 17 53 32 53
34 0 5 -114 3 -150 -2z m969 -1885 c23 -76 9 -153 -39 -211 -30 -36 -31 -36
-60 -21 -27 13 -33 13 -60 -1 -29 -14 -30 -14 -25 7 2 12 10 51 16 87 12 73
60 171 98 201 l25 20 17 -22 c9 -13 22 -39 28 -60z m-2039 -324 c0 -6 -6 -20
-14 -30 -14 -19 -15 -19 -34 -2 -11 10 -23 29 -26 43 -8 31 -25 31 -19 0 5
-24 21 -44 54 -69 17 -12 34 -77 21 -77 -21 0 -71 42 -85 73 -20 41 -21 76 -6
131 l11 39 49 -49 c27 -26 49 -53 49 -59z m58 -88 c6 -23 9 -43 7 -45 -2 -3
-16 -1 -30 2 -36 9 -51 46 -35 86 12 28 14 30 30 15 10 -9 23 -35 28 -58z"/>
<path d="M4459 5416 c-12 -20 -30 -41 -40 -47 -11 -5 -19 -14 -19 -20 0 -5 14
-3 30 6 23 12 35 13 50 5 22 -12 27 -49 8 -68 -6 -6 -8 -15 -4 -19 12 -12 36
27 36 58 0 18 -9 34 -26 46 -23 17 -25 22 -14 42 20 39 2 36 -21 -3z"/>
<path d="M3783 6189 c-53 -10 -123 -45 -123 -63 0 -32 26 -37 75 -15 91 40
163 36 290 -16 20 -8 20 -8 0 14 -52 59 -158 94 -242 80z"/>
<path d="M2876 6084 c-34 -11 -65 -32 -102 -69 -67 -67 -70 -86 -6 -41 69 50
156 72 230 59 66 -12 82 -8 82 18 0 40 -122 59 -204 33z"/>
<path d="M3740 5761 c-51 -51 -84 -128 -98 -224 -8 -53 -7 -59 15 -85 23 -24
24 -25 13 -3 -7 13 -10 34 -7 47 2 13 1 22 -3 19 -3 -2 -4 10 -2 28 5 31 5 31
12 7 38 -140 190 -198 281 -107 22 22 30 26 25 13 -5 -16 -4 -17 8 -7 12 10
14 9 12 -5 -2 -10 -18 -24 -37 -31 l-34 -13 45 6 c25 4 46 7 47 8 2 1 10 32
20 69 15 56 16 74 5 123 -22 107 -95 176 -204 194 l-53 8 -45 -47z m109 -56
c88 -80 106 -91 94 -57 -5 14 -4 15 8 4 12 -11 10 -16 -10 -33 -26 -21 -39
-23 -75 -9 -30 11 -57 59 -49 88 6 26 11 27 32 7z m102 -2 c13 -16 12 -17 -3
-4 -10 7 -18 15 -18 17 0 8 8 3 21 -13z m-113 -165 c19 -19 15 -66 -7 -78 -11
-5 -24 -10 -30 -10 -18 0 -41 31 -41 55 0 37 52 59 78 33z"/>
<path d="M2978 5713 c7 -3 16 -2 19 1 4 3 -2 6 -13 5 -11 0 -14 -3 -6 -6z"/>
<path d="M3020 5700 c-8 -5 -29 -14 -46 -20 -42 -15 -93 -66 -115 -115 -27
-58 -25 -157 4 -215 42 -84 37 -80 97 -78 l55 2 -48 3 c-32 3 -47 8 -44 16 3
7 10 11 17 9 11 -3 11 0 0 12 -16 20 -2 21 20 1 9 -8 40 -19 70 -25 65 -12 79
-12 60 0 -13 8 -12 10 4 10 29 0 102 82 112 124 11 45 28 51 32 12 4 -36 -24
-113 -46 -126 -15 -8 -14 -9 4 -10 14 0 23 8 27 23 2 12 13 43 23 68 l17 47
-35 75 c-20 41 -54 93 -77 116 -49 49 -110 82 -131 71z m-40 -70 c-35 -24 -54
-31 -30 -11 14 11 30 21 35 21 6 0 3 -5 -5 -10z m50 -29 c28 -53 -11 -121 -70
-121 -30 0 -30 0 -16 29 9 16 27 43 41 60 15 17 24 35 20 41 -3 5 -2 10 4 10
6 0 15 -9 21 -19z m98 -163 c16 -16 15 -53 -2 -68 -21 -16 -56 -9 -72 15 -27
41 39 88 74 53z"/>
<path d="M3553 5590 c0 -25 2 -35 4 -22 2 12 2 32 0 45 -2 12 -4 2 -4 -23z"/>
<path d="M3561 5504 c0 -11 3 -14 6 -6 3 7 2 16 -1 19 -3 4 -6 -2 -5 -13z"/>
<path d="M4652 5420 c0 -19 2 -27 5 -17 2 9 2 25 0 35 -3 9 -5 1 -5 -18z"/>
<path d="M3685 5410 c3 -5 8 -10 11 -10 2 0 4 5 4 10 0 6 -5 10 -11 10 -5 0
-7 -4 -4 -10z"/>
<path d="M3710 5380 c0 -5 5 -10 11 -10 5 0 7 5 4 10 -3 6 -8 10 -11 10 -2 0
-4 -4 -4 -10z"/>
<path d="M3138 5293 c7 -3 16 -2 19 1 4 3 -2 6 -13 5 -11 0 -14 -3 -6 -6z"/>
<path d="M3727 5179 c4 -13 8 -18 11 -10 2 7 -1 18 -6 23 -8 8 -9 4 -5 -13z"/>
<path d="M4540 5148 c-25 -22 -36 -36 -25 -30 19 10 84 72 74 72 -2 -1 -24
-19 -49 -42z"/>
<path d="M3262 5110 c0 -14 2 -19 5 -12 2 6 2 18 0 25 -3 6 -5 1 -5 -13z"/>
<path d="M4322 5078 c-7 -28 -11 -53 -8 -55 2 -2 9 19 16 47 7 28 10 53 8 55
-3 3 -10 -18 -16 -47z"/>
<path d="M3584 5106 c-17 -13 -17 -15 -3 -21 22 -8 82 8 87 23 5 17 -60 15
-84 -2z"/>
<path d="M3355 5070 c-13 -22 8 -32 52 -25 64 9 78 16 61 26 -18 12 -106 11
-113 -1z"/>
<path d="M4301 4994 c0 -11 3 -14 6 -6 3 7 2 16 -1 19 -3 4 -6 -2 -5 -13z"/>
<path d="M2360 4986 c0 -2 8 -10 18 -17 15 -13 16 -12 3 4 -13 16 -21 21 -21
13z"/>
<path d="M1680 4976 c0 -2 8 -10 18 -17 15 -13 16 -12 3 4 -13 16 -21 21 -21
13z"/>
<path d="M1570 4936 c0 -5 34 -60 75 -123 41 -62 75 -117 75 -120 0 -4 -12 4
-27 18 -16 13 -10 5 12 -19 81 -87 60 -42 -82 173 -29 43 -53 75 -53 71z"/>
<path d="M3220 4890 c8 -5 22 -10 30 -10 13 0 13 1 0 10 -8 5 -22 10 -30 10
-13 0 -13 -1 0 -10z"/>
<path d="M1364 4865 c-11 -46 5 -72 103 -160 54 -48 115 -106 135 -129 20 -22
40 -38 43 -34 3 3 -47 54 -112 114 -181 168 -166 150 -160 195 6 44 1 52 -9
14z"/>
<path d="M3724 4865 c-10 -8 -14 -15 -8 -15 6 0 17 7 24 15 16 19 9 19 -16 0z"/>
<path d="M2130 4840 c6 -11 13 -20 16 -20 2 0 0 9 -6 20 -6 11 -13 20 -16 20
-2 0 0 -9 6 -20z"/>
<path d="M2640 4836 c0 -31 145 -184 211 -223 16 -9 29 -23 29 -30 0 -7 4 -13
10 -13 5 0 65 -27 132 -59 68 -33 154 -69 191 -80 134 -41 215 -88 311 -180
l90 -86 -64 72 c-35 40 -70 75 -79 79 -9 5 15 10 60 14 81 6 147 33 239 96
l50 34 -16 -40 c-9 -23 -14 -43 -11 -46 3 -3 13 16 22 43 18 48 34 68 95 113
124 92 78 69 -92 -47 -174 -119 -208 -134 -299 -134 -103 -1 -160 23 -242 100
-69 65 -98 78 -52 22 15 -17 21 -31 15 -31 -20 0 -209 79 -269 112 -129 71
-225 148 -276 220 -47 65 -55 74 -55 64z"/>
<path d="M3340 4826 c0 -2 7 -6 15 -10 8 -3 15 -1 15 4 0 6 -7 10 -15 10 -8 0
-15 -2 -15 -4z"/>
<path d="M1590 4797 c0 -2 15 -16 33 -33 l32 -29 -29 33 c-28 30 -36 37 -36
29z"/>
<path d="M3498 4773 c7 -3 16 -2 19 1 4 3 -2 6 -13 5 -11 0 -14 -3 -6 -6z"/>
<path d="M4135 4722 c-27 -26 -72 -67 -100 -90 -34 -29 -38 -36 -15 -20 35 23
180 157 170 157 -3 1 -27 -21 -55 -47z"/>
<path d="M3715 4744 c-11 -9 -47 -29 -80 -45 -73 -35 -149 -38 -230 -10 -31
11 -53 16 -50 11 10 -16 107 -40 161 -40 65 0 148 30 194 69 36 31 40 42 5 15z"/>
<path d="M1280 4710 c-11 -7 -5 -8 20 -4 43 8 51 14 19 14 -13 0 -31 -5 -39
-10z"/>
<path d="M1350 4706 c0 -3 9 -10 20 -16 11 -6 20 -8 20 -6 0 3 -9 10 -20 16
-11 6 -20 8 -20 6z"/>
<path d="M1253 4674 c-12 -31 12 -67 65 -101 65 -42 69 -35 5 8 -59 40 -64 47
-60 82 4 30 0 35 -10 11z"/>
<path d="M1784 4612 c-21 -16 -52 -46 -68 -66 -31 -41 -66 -125 -65 -154 0 -9
6 2 14 25 20 66 60 127 116 177 58 53 60 59 3 18z"/>
<path d="M1420 4511 c14 -11 46 -32 72 -48 26 -15 48 -33 48 -39 0 -11 40 -27
48 -19 4 4 -131 96 -168 114 l-25 12 25 -20z"/>
<path d="M2187 4427 c-8 -105 -24 -152 -71 -200 -66 -67 -97 -90 -164 -119
-59 -25 -65 -26 -107 -13 -25 7 -45 9 -45 4 0 -5 8 -9 18 -9 9 0 29 -6 44 -14
24 -13 32 -11 105 24 82 40 179 125 209 182 10 19 18 67 21 124 6 111 -2 127
-10 21z"/>
<path d="M1241 4419 c-1 -9 7 -25 17 -36 9 -10 14 -14 10 -8 -4 6 -12 22 -17
36 -6 15 -10 18 -10 8z"/>
<path d="M1810 4389 c0 -30 64 -113 105 -136 58 -33 77 -28 24 5 -50 33 -72
56 -105 110 -14 21 -24 30 -24 21z"/>
<path d="M3970 4365 c-8 -15 -44 -55 -80 -88 -61 -57 -62 -58 -16 -26 54 38
120 112 114 130 -2 6 -10 -1 -18 -16z"/>
<path d="M2721 4364 c0 -11 3 -14 6 -6 3 7 2 16 -1 19 -3 4 -6 -2 -5 -13z"/>
<path d="M1400 4321 c138 -45 144 -48 234 -121 62 -50 156 -108 156 -96 0 2
-24 18 -52 34 -29 16 -82 55 -117 85 -63 56 -88 68 -235 113 -124 38 -114 27
14 -15z"/>
<path d="M2785 4342 c-58 -3 -105 -28 -105 -55 0 -5 9 2 21 17 20 26 21 26
156 26 75 0 134 2 132 4 -7 6 -143 12 -204 8z"/>
<path d="M3018 4263 c12 -2 30 -2 40 0 9 3 -1 5 -23 4 -22 0 -30 -2 -17 -4z"/>
<path d="M3103 4263 c9 -2 25 -2 35 0 9 3 1 5 -18 5 -19 0 -27 -2 -17 -5z"/>
<path d="M2672 4235 c0 -16 2 -22 5 -12 2 9 2 23 0 30 -3 6 -5 -1 -5 -18z"/>
<path d="M3168 4253 c7 -3 16 -2 19 1 4 3 -2 6 -13 5 -11 0 -14 -3 -6 -6z"/>
<path d="M2275 4240 c3 -5 14 -10 23 -10 15 0 15 2 2 10 -20 13 -33 13 -25 0z"/>
<path d="M2918 4243 c7 -3 16 -2 19 1 4 3 -2 6 -13 5 -11 0 -14 -3 -6 -6z"/>
<path d="M3989 4223 c-24 -26 -10 -23 23 5 15 13 20 13 35 1 16 -13 17 -12 4
4 -19 24 -33 21 -62 -10z"/>
<path d="M3240 4225 c14 -8 32 -14 40 -15 23 0 -2 17 -35 24 l-30 6 25 -15z"/>
<path d="M3308 4213 c7 -3 16 -2 19 1 4 3 -2 6 -13 5 -11 0 -14 -3 -6 -6z"/>
<path d="M2281 4184 c0 -11 3 -14 6 -6 3 7 2 16 -1 19 -3 4 -6 -2 -5 -13z"/>
<path d="M3481 4178 c-5 -15 -4 -26 3 -30 12 -8 26 20 19 37 -2 6 7 -3 21 -20
26 -30 35 -20 20 19 -9 25 -53 20 -63 -6z"/>
<path d="M2703 4183 c-13 -2 -23 -8 -23 -13 0 -5 14 -4 30 1 27 10 42 21 23
18 -5 -1 -18 -4 -30 -6z"/>
<path d="M3729 4164 c-14 -17 -3 -44 22 -53 12 -4 12 -2 0 13 -11 13 -11 20
-3 28 9 9 18 6 39 -13 l27 -24 -23 33 c-25 35 -42 40 -62 16z"/>
<path d="M3878 4153 c7 -3 16 -2 19 1 4 3 -2 6 -13 5 -11 0 -14 -3 -6 -6z"/>
<path d="M2580 4123 c0 -6 6 -16 14 -22 8 -6 19 -25 26 -42 7 -16 15 -28 17
-25 3 2 -1 15 -8 28 -18 33 -49 72 -49 61z"/>
<path d="M3543 4090 c0 -25 2 -35 4 -22 2 12 2 32 0 45 -2 12 -4 2 -4 -23z"/>
<path d="M2215 4068 l-40 -43 43 40 c39 36 47 45 39 45 -2 0 -21 -19 -42 -42z"/>
<path d="M3660 4099 c0 -5 5 -7 10 -4 6 3 10 8 10 11 0 2 -4 4 -10 4 -5 0 -10
-5 -10 -11z"/>
<path d="M3828 4070 c9 -21 18 -35 20 -30 3 9 -25 70 -33 70 -2 0 4 -18 13
-40z"/>
<path d="M3491 4054 c0 -11 3 -14 6 -6 3 7 2 16 -1 19 -3 4 -6 -2 -5 -13z"/>
<path d="M3852 3855 c-1 -93 2 -177 8 -185 14 -22 -8 -44 -29 -28 -13 10 -14
10 -3 -2 6 -8 12 -21 12 -30 0 -9 13 -29 30 -45 l30 -29 25 24 c14 13 25 29
25 35 0 14 -42 55 -58 55 -22 0 -27 29 -32 200 l-6 175 -2 -170z"/>
<path d="M2114 3994 c-18 -14 -18 -15 4 -4 12 6 22 13 22 15 0 8 -5 6 -26 -11z"/>
<path d="M2030 3963 c-25 -9 -47 -17 -49 -19 -6 -6 20 -33 63 -65 l41 -31 -43
38 c-23 22 -42 42 -42 45 0 4 18 14 40 23 22 9 40 18 40 21 0 3 -1 5 -2 4 -2
0 -23 -8 -48 -16z"/>
<path d="M3451 3954 c0 -11 3 -14 6 -6 3 7 2 16 -1 19 -3 4 -6 -2 -5 -13z"/>
<path d="M3491 3798 c-1 -141 -2 -148 -21 -148 -19 0 -20 7 -22 143 l-2 142
-8 -155 c-4 -85 -9 -173 -10 -195 l-3 -40 41 -3 42 -3 -5 193 c-2 106 -6 198
-8 203 -2 6 -4 -56 -4 -137z"/>
<path d="M3803 3775 c0 -38 2 -53 4 -32 2 20 2 52 0 70 -2 17 -4 1 -4 -38z"/>
<path d="M2940 3770 l-65 -6 50 -4 c56 -6 53 -1 69 -147 6 -54 5 -62 -11 -66
-16 -4 -16 -5 -1 -6 14 -1 18 -14 21 -78 2 -43 2 -10 0 72 -3 83 -5 168 -6
190 l-2 40 60 6 60 6 -55 0 c-30 0 -84 -3 -120 -7z"/>
<path d="M2833 3753 c9 -2 23 -2 30 0 6 3 -1 5 -18 5 -16 0 -22 -2 -12 -5z"/>
<path d="M4090 3568 c0 -10 2 -18 5 -18 2 0 28 -6 57 -14 34 -9 67 -11 93 -6
39 8 39 8 -16 9 -59 1 -119 17 -131 35 -5 7 -8 4 -8 -6z"/>
<path d="M2992 3340 c0 -14 2 -19 5 -12 2 6 2 18 0 25 -3 6 -5 1 -5 -13z"/>
<path d="M2981 3284 c0 -11 3 -14 6 -6 3 7 2 16 -1 19 -3 4 -6 -2 -5 -13z"/>
<path d="M4180 3088 c0 -19 2 -20 10 -8 13 19 13 30 0 30 -5 0 -10 -10 -10
-22z"/>
<path d="M4220 3093 c30 -11 70 -57 71 -82 0 -16 3 -20 6 -11 3 8 15 26 27 40
12 15 13 19 3 9 -17 -15 -21 -13 -52 18 -18 18 -41 33 -51 32 -15 0 -15 -2 -4
-6z"/>
<path d="M4192 3020 c0 -14 2 -19 5 -12 2 6 2 18 0 25 -3 6 -5 1 -5 -13z"/>
<path d="M4270 2950 c-11 -26 -36 -50 -54 -50 -3 0 -7 17 -9 38 -2 23 -4 15
-4 -23 0 -33 1 -53 4 -44 5 21 38 30 53 15 8 -8 10 -7 5 6 -4 9 1 31 10 48 9
18 14 34 12 36 -2 3 -10 -9 -17 -26z"/>
<path d="M4271 2854 c0 -11 3 -14 6 -6 3 7 2 16 -1 19 -3 4 -6 -2 -5 -13z"/>
<path d="M2900 2813 c0 -20 344 -124 400 -122 l25 2 -25 4 c-93 16 -332 88
-382 114 -10 6 -18 6 -18 2z"/>
<path d="M4272 2790 c0 -14 2 -19 5 -12 2 6 2 18 0 25 -3 6 -5 1 -5 -13z"/>
<path d="M4177 2793 c-4 -3 -7 -34 -7 -67 0 -34 -4 -66 -8 -72 -10 -17 -163
-69 -278 -94 -82 -19 -129 -23 -269 -22 -212 0 -368 24 -593 91 -41 13 -75 21
-77 19 -2 -2 -6 -176 -10 -388 -6 -329 -5 -407 10 -535 18 -162 17 -272 -10
-624 l-15 -183 -79 -83 c-89 -92 -135 -172 -146 -251 -6 -48 -5 -53 27 -87 18
-20 60 -49 93 -64 57 -27 67 -28 205 -28 139 0 148 1 202 28 33 16 75 48 99
75 50 57 143 244 161 321 l12 56 7 -45 6 -45 2 50 c1 28 1 235 1 460 0 376 1
417 19 487 22 84 89 248 101 248 19 0 118 -251 147 -370 12 -52 16 -135 17
-405 l1 -340 35 -39 c52 -57 104 -83 231 -115 174 -45 273 -55 476 -47 98 4
186 7 195 8 21 3 34 69 23 120 -22 99 -82 156 -182 173 -24 4 -43 3 -43 -2 0
-5 -16 -17 -34 -27 -19 -10 -45 -29 -57 -42 -25 -27 -39 -31 -39 -11 0 15 58
72 78 79 7 2 -9 10 -36 19 -34 10 -49 11 -48 3 1 -10 -86 -84 -99 -84 -3 0 -5
6 -5 14 0 14 44 56 78 75 15 9 15 12 -7 35 -26 28 -24 1 -36 401 -7 242 -22
484 -36 585 -9 66 -96 425 -115 473 -6 16 -3 18 30 12 39 -8 60 3 77 39 6 13
2 11 -11 -6 -24 -30 -56 -36 -84 -15 -20 15 -21 27 -9 150 5 42 8 77 7 77 0 0
-4 -3 -7 -7z m159 -1699 c2 -5 -17 -22 -42 -39 -25 -16 -52 -34 -59 -40 -20
-14 -30 2 -14 21 22 27 92 75 103 71 5 -2 11 -7 12 -13z m-1129 -196 c47 -24
73 -52 60 -64 -4 -4 -24 5 -45 19 -40 28 -128 50 -168 42 -13 -3 -36 -7 -50
-10 -21 -5 -25 -2 -22 12 7 39 150 40 225 1z m-34 -85 c44 -22 67 -47 54 -59
-3 -3 -31 9 -62 27 -54 30 -60 31 -136 26 -63 -4 -79 -2 -79 8 0 8 16 17 38
20 20 4 42 8 47 10 22 7 93 -9 138 -32z m-48 -82 c56 -26 79 -46 71 -60 -5 -8
-21 -3 -53 16 -50 29 -122 36 -195 19 -48 -11 -52 9 -5 29 46 20 134 18 182
-4z"/>
<path d="M3931 2709 c-153 -37 -340 -46 -556 -24 l-50 4 45 -11 c25 -6 125
-11 230 -11 152 0 203 4 287 21 97 21 164 41 133 40 -8 0 -48 -8 -89 -19z"/>
<path d="M4246 2707 c-7 -28 -3 -30 16 -7 13 15 14 19 3 24 -7 2 -15 -4 -19
-17z"/>
<path d="M4302 2698 c7 -15 15 -23 17 -17 2 6 -4 18 -13 27 -15 15 -15 15 -4
-10z"/>
<path d="M3802 870 c0 -14 2 -19 5 -12 2 6 2 18 0 25 -3 6 -5 1 -5 -13z"/>
<path d="M3816 827 c3 -10 9 -15 12 -12 3 3 0 11 -7 18 -10 9 -11 8 -5 -6z"/>
<path d="M3880 775 c0 -7 61 -37 66 -33 2 3 -12 12 -31 21 -19 9 -35 15 -35
12z"/>
<path d="M3491 744 c0 -11 3 -14 6 -6 3 7 2 16 -1 19 -3 4 -6 -2 -5 -13z"/>
<path d="M3220 350 c-9 -6 -10 -10 -3 -10 6 0 15 5 18 10 8 12 4 12 -15 0z"/>
<path d="M2983 313 c20 -2 54 -2 75 0 20 2 3 4 -38 4 -41 0 -58 -2 -37 -4z"/>
</g>
</svg>
